<svg width="188" height="56" viewBox="0 0 188 56" fill="none" xmlns="http://www.w3.org/2000/svg">
<path d="M177.763 10.1688V7.84789e-08L175.957 0C171.492 -1.93855e-07 167.872 3.59515 167.872 8.03223V10.1688H177.763Z" fill="#D0005E"/>
<path d="M177.763 22.1329V19.9965H167.872V30.1652H169.678C174.146 30.1652 177.763 26.5679 177.763 22.1329Z" fill="#D0005E"/>
<path opacity="0.35" d="M177.763 10.1687V9.00745H167.872V10.1687H177.763Z" fill="#D0005E"/>
<path opacity="0.35" d="M177.763 21.1576V19.9963H167.872V21.1576H177.763Z" fill="#D0005E"/>
<path d="M157.636 10.1687H181.999C185.314 10.1687 188 12.8388 188 16.13V19.9963H163.638C160.322 19.9963 157.636 17.3262 157.636 14.035V10.1687Z" fill="#D0005E"/>
<path d="M10.3117 55.3651H0V27.1314H9.67253C12.5274 27.1314 17.2998 27.5124 20.9643 31.0257C24.2878 34.2004 24.927 38.264 24.927 41.3117C24.927 45.0367 23.9896 48.3384 21.2199 51.0898C18.9616 53.3333 15.1692 55.3651 10.3117 55.3651ZM7.37157 33.3538V49.1426H8.86294C10.6526 49.1426 13.1665 48.9733 15.084 47.1108C16.0215 46.2219 17.2572 44.4441 17.2572 41.3117C17.2572 38.6872 16.4475 36.4439 15.0414 35.1316C13.2944 33.5232 10.9934 33.3538 9.1612 33.3538H7.37157ZM39.6835 41.5657C38.5756 41.5657 37.3825 42.0736 36.6156 42.7932C35.7633 43.5974 35.2946 44.7828 35.2946 45.8834C35.2946 47.0262 35.8486 48.1267 36.6156 48.8886C37.4251 49.693 38.533 50.1586 39.6835 50.1586C40.7914 50.1586 41.8991 49.693 42.7088 48.8886C43.5609 48.0844 44.0297 46.9838 44.0297 45.8834C44.0297 44.8675 43.5609 43.6399 42.7088 42.7932C41.9418 42.0736 40.7487 41.5657 39.6835 41.5657ZM51.103 45.8834C51.103 48.4231 50.2508 50.8359 48.1629 52.8677C45.6489 55.3227 42.7088 56 39.6409 56C36.8712 56 33.8033 55.4497 31.1614 52.8677C29.0735 50.8359 28.2214 48.4231 28.2214 45.8834C28.2214 42.497 29.7553 40.2958 31.1614 38.9414C32.738 37.4174 35.5077 35.809 39.6409 35.809C43.8593 35.809 46.5863 37.4598 48.1629 38.9414C49.5691 40.2958 51.103 42.497 51.103 45.8834ZM55.0371 55.3651V36.4439H61.8548V38.8144C63.7297 36.3592 66.2436 36.0205 67.9055 36.0205C69.8655 36.0205 71.9533 36.4862 73.53 38.0523C75.1492 39.6608 75.3196 41.2694 75.3196 43.3435V55.3651H68.5019V45.7987C68.5019 44.6981 68.5446 43.0472 67.6498 42.116C67.0105 41.4387 66.1584 41.3117 65.4766 41.3117C64.4114 41.3117 63.5166 41.6926 62.9627 42.2006C62.2808 42.8355 61.8548 44.0631 61.8548 45.206V55.3651H55.0371ZM95.7709 30.7718L94.4073 31.9146C92.6603 28.5283 89.5923 28.4436 88.8254 28.4436C85.4592 28.4436 83.5417 30.8563 83.5417 33.6925C83.5417 36.7401 85.6722 37.756 88.5272 39.1529C91.3394 40.5075 92.7455 41.1001 94.1942 42.116C95.43 42.9625 97.2196 44.4441 97.2196 47.5765C97.2196 52.3174 93.2143 55.8308 88.3566 55.8308C84.6921 55.8308 82.8174 54.0952 81.752 52.8677C80.6443 51.5978 80.1755 50.4972 79.9199 49.7775L81.5391 49.0156C81.9226 50.1162 82.6468 51.2168 83.073 51.7248C84.3513 53.3333 86.4392 54.1375 88.3993 54.1375C92.2342 54.1375 95.2596 51.3438 95.2596 47.6188C95.2596 46.0949 94.663 44.4865 92.4899 43.1742C91.6803 42.7085 90.0184 41.8621 87.6749 40.7192C84.8627 39.3646 83.4565 38.6027 82.4764 36.9941C81.8373 35.9359 81.5816 34.8776 81.5816 33.7772C81.5816 30.5178 83.7973 26.7504 88.8679 26.7504C91.7229 26.7504 94.322 28.105 95.7709 30.7718ZM116.721 41.1001V38.0947H118.425V55.3651H116.721V52.275C114.974 54.9417 112.204 55.8308 109.946 55.8308C105.387 55.8308 101.467 52.402 101.467 46.7298C101.467 41.3964 104.875 37.7138 109.946 37.7138C112.673 37.7138 115.059 38.7719 116.721 41.1001ZM110.031 39.3223C106.58 39.3223 103.256 41.9043 103.256 46.6029C103.256 50.4972 105.685 54.2222 110.074 54.2222C114.42 54.2222 116.806 50.5819 116.806 46.6029C116.806 41.4811 113.014 39.3223 110.031 39.3223ZM124.545 38.0947H126.25V48.5077C126.25 49.7353 126.292 51.5555 127.358 52.8254C128.423 54.0952 130 54.2222 130.809 54.2222C131.619 54.2222 133.195 54.0952 134.261 52.8254C135.326 51.5555 135.368 49.7353 135.368 48.5077V38.0947H137.073V48.9733C137.073 50.3702 136.945 52.1904 135.752 53.7143C134.431 55.4074 132.343 55.8308 130.809 55.8308C129.275 55.8308 127.187 55.4074 125.866 53.7143C124.673 52.1904 124.545 50.3702 124.545 48.9733V38.0947ZM133.153 29.1209L134.985 30.1791L130.511 35.5973L129.233 34.92L133.153 29.1209ZM157.375 41.1001V24.507H159.081V55.3651H157.375V52.275C155.629 54.9417 152.859 55.8308 150.643 55.8308C146.255 55.8308 142.121 52.6984 142.121 46.6453C142.121 40.3382 146.425 37.7138 150.643 37.7138C153.796 37.7138 156.012 39.1529 157.375 41.1001ZM150.643 39.3223C147.064 39.3223 143.911 41.7773 143.911 46.6029C143.911 51.6401 147.234 54.2222 150.728 54.2222C154.18 54.2222 157.46 51.6401 157.46 46.6029C157.46 42.5816 154.946 39.3223 150.643 39.3223ZM180.753 46.9415H165.882C165.882 51.3438 169.121 54.2222 172.785 54.2222C175.597 54.2222 177.727 52.5714 178.835 50.2856L180.283 51.1321C179.262 53.0793 176.961 55.8308 172.656 55.8308C167.245 55.8308 164.093 51.8518 164.093 46.8146C164.093 40.8037 168.268 37.7138 172.528 37.7138C177.216 37.7138 180.753 41.4387 180.753 46.9415ZM166.009 45.333H178.962C178.537 41.9043 175.98 39.3223 172.528 39.3223C168.993 39.3223 166.479 41.989 166.009 45.333Z" fill="black"/>
</svg>
